<!DOCTYPE svg PUBLIC "-//W3C//DTD SVG 1.1//EN" "http://www.w3.org/Graphics/SVG/1.1/DTD/svg11.dtd">
<!-- Uploaded to: SVG Repo, www.svgrepo.com, Transformed by: SVG Repo Mixer Tools -->
<svg height="249px" width="249px" version="1.1" id="Layer_1" xmlns="http://www.w3.org/2000/svg" xmlns:xlink="http://www.w3.org/1999/xlink" viewBox="0 0 512 512" xml:space="preserve" fill="#000000" stroke="#000000" stroke-width="0.00512">
<g id="SVGRepo_bgCarrier" stroke-width="0"/>
<g id="SVGRepo_tracerCarrier" stroke-linecap="round" stroke-linejoin="round"/>
<g id="SVGRepo_iconCarrier"> <path style="fill:#bdf4ff;" d="M255.998,226.984c-4.203,0-8.067-2.307-10.061-6.007c-1.265-2.35-31.002-58.413-31.002-135.523 c0-23.575,2.929-43.57,8.472-57.826C232.753,3.59,247.839,0,256,0c8.161,0,23.247,3.59,32.594,27.629 c5.543,14.256,8.472,34.251,8.472,57.826c0,77.112-29.742,133.175-31.009,135.525C264.064,224.678,260.2,226.984,255.998,226.984z M256,22.857c-7.04,0-18.209,16.994-18.209,62.597c0,42.833,10.07,78.954,18.19,101.117c8.129-22.217,18.229-58.416,18.229-101.117 C274.209,39.851,263.04,22.857,256,22.857z"/> <g> <path style="fill:#3afd98;" d="M411.6,320.697c4.023,14.274,20.994,26.811,20.994,42.629c0,15.806-16.971,28.343-20.994,42.617 c-4.171,14.789,3.017,36.377-4.766,48.686c-7.863,12.434-27.966,11.2-38.766,20.251c-10.686,8.96-15.84,31.406-28.686,36.206 c-12.389,4.64-27.954-9.886-41.691-9.886c-13.737,0-29.303,14.526-41.691,9.886V215.554c12.389-4.629,27.954,9.886,41.691,9.886 c13.737,0,29.303-14.514,41.691-9.886c12.846,4.8,18,27.246,28.686,36.206c10.8,9.051,30.903,7.817,38.766,20.251 C414.617,284.32,407.429,305.909,411.6,320.697z"/> <path style="fill:#3afd98;" d="M100.4,320.697c-4.023,14.274-20.994,26.811-20.994,42.629c0,15.806,16.971,28.343,20.994,42.617 c4.171,14.789-3.017,36.377,4.766,48.686c7.863,12.434,27.966,11.2,38.766,20.251c10.686,8.96,15.84,31.406,28.686,36.206 c12.389,4.64,27.954-9.886,41.691-9.886c13.737,0,29.303,14.526,41.691,9.886V215.554c-12.389-4.629-27.954,9.886-41.691,9.886 s-29.303-14.514-41.691-9.886c-12.846,4.8-18,27.246-28.686,36.206c-10.8,9.051-30.903,7.817-38.766,20.251 C97.383,284.32,104.572,305.909,100.4,320.697z"/> </g> <path style="fill:#75ffb8;" d="M328.217,320.697c4.023,14.274,20.983,26.811,20.983,42.629c0,15.806-16.96,28.343-20.983,42.617 c-4.171,14.789,3.006,36.377-4.766,48.686c-7.863,12.434-27.966,11.2-38.766,20.251C274,483.84,268.846,506.286,256,511.086 c-12.846-4.8-18-27.246-28.686-36.206c-10.8-9.051-30.903-7.817-38.766-20.251c-7.771-12.309-0.594-33.897-4.766-48.686 c-4.023-14.274-20.983-26.811-20.983-42.617c0-15.817,16.96-28.354,20.983-42.629c4.171-14.789-3.006-36.377,4.766-48.686 c7.863-12.434,27.966-11.2,38.766-20.251C238,242.8,243.154,220.354,256,215.554c12.846,4.8,18,27.246,28.686,36.206 c10.8,9.051,30.903,7.817,38.766,20.251C331.223,284.32,324.046,305.909,328.217,320.697z"/> </g>
</svg>